<svg xmlns="http://www.w3.org/2000/svg" xmlns:xlink="http://www.w3.org/1999/xlink" width="0" height="0" style="position:absolute">
    
        <symbol id="icon-Выбор города" viewBox="0 0 12.6 7.7">
            <path d="M6.3 7.5L.3.1h1.2L6.3 6 11.2.1h1.2z"/>
        </symbol>
    
        <symbol id="icon-Выезд" viewBox="0 0 454 243.8">
            <path d="M.2 94.3c-.1.5-.2 1.1-.2 1.7v67.6c.1 19.7 16.1 35.5 35.8 35.5h26.4c2.5 25.1 23.3 44.3 48.5 44.8 27.4.5 50-21.4 50.4-48.8H301c.6 25.4 20.2 46.2 45.5 48.3 27.3 2.3 51.3-18 53.5-45.3h47.1c3.8 0 6.9-3 6.9-6.8v-58.2c-.1-26.1-21.3-47.1-47.4-46.9h-52.8l-40.4-35.1C281.2 18.8 241.9 0 205.7 0H83.4C64.6.2 47.2 10.2 37.5 26.3c0 0 0 .3-.1.3L2.2 87.4c-.3.6-.6 1.2-.7 1.8L.2 94.3zM43 44.5V86H19.4L43 44.5zM190 86V14h13v34.7c0 14.6 6.3 27.3 16.1 37.3H190zm-14 0h-12V14h12v72zm-26 0h-13V14h13v72zm-27 0h-13V14h13v72zm-27 0H84V14h12v72zm-26 0H57V24.4c3.8-3.3 8.2-5.9 13-7.5V86zm262.3 0h-78.1c-20.5-.2-37.1-16.8-37.2-37.3V15.1c30 3.4 60.4 19.8 86.6 46 .1.1.3.3.5.4L332.3 86zM440 184h-40.7c-4.6-23.2-25-39.8-48.6-39.7-22.4.1-41.9 15.1-47.9 36.7H217v-81h189.8c18.3 0 33.2 14.8 33.2 33.1V184zm-89.3 45.6c-19.7 0-35.6-16-35.6-35.6 0-19.7 15.9-35.6 35.6-35.6s35.6 15.9 35.6 35.6-15.9 35.6-35.6 35.6zm-239.1 0c-19.7 0-35.6-16-35.6-35.6 0-19.7 15.9-35.6 35.6-35.6 19.7 0 35.6 15.9 35.6 35.6s-15.9 35.6-35.6 35.6zM35.5 185c-12-.2-21.6-10-21.5-22v-63h189v81h-43.5c-5-18.3-20-32.1-38.7-35.6-26.9-5-52.9 12.7-57.9 39.6H35.5z"/>
        </symbol>
    
        <symbol id="icon-Местоположение серое" viewBox="0 0 14 20">
            <path stroke="#BCBBBF" stroke-miterlimit="10" d="M13.4 7c0 3.5-6.4 12.1-6.4 12.1S.6 10.6.6 7 3.5.6 7 .6s6.4 2.9 6.4 6.4z"/><circle cx="7" cy="6.9" r="1.5"/>
        </symbol>
    
        <symbol id="icon-время приезда" viewBox="0 0 60 60">
            <path d="M31.634 37.989a3.558 3.558 0 0 0 2.606-1.459l9.363-12.944a1 1 0 0 0-1.397-1.397L29.26 31.555c-.844.614-1.375 1.563-1.456 2.604s.296 2.06 1.033 2.797a3.554 3.554 0 0 0 2.797 1.033zm-1.836-3.674a1.56 1.56 0 0 1 .637-1.142l7.897-5.713-5.711 7.895a1.565 1.565 0 0 1-2.371.187 1.564 1.564 0 0 1-.452-1.227z"/><path d="M54.034 19.564c-.01-.021-.01-.043-.021-.064-.012-.02-.031-.031-.044-.05a27.185 27.185 0 0 0-3.565-4.809l2.148-2.147 1.414 1.414 4.242-4.243-4.242-4.242-4.243 4.242 1.415 1.415-2.148 2.147a27.154 27.154 0 0 0-4.809-3.566c-.019-.013-.03-.032-.05-.044-.021-.012-.043-.011-.064-.022a26.81 26.81 0 0 0-10.273-3.404V5h1.5c1.379 0 2.5-1.121 2.5-2.5S36.672 0 35.293 0h-9c-1.379 0-2.5 1.121-2.5 2.5s1.121 2.5 2.5 2.5h1.5v1.156c-1.08.115-2.158.291-3.224.535a1 1 0 1 0 .447 1.949 25.43 25.43 0 0 1 2.78-.477l1.073-.083c.328-.025.63-.043.924-.057V10a1 1 0 1 0 2 0V8.03a24.805 24.805 0 0 1 10.456 2.845l-.986 1.707a1 1 0 0 0 1.732 1l.983-1.703a25.194 25.194 0 0 1 7.772 7.772l-1.703.983a1 1 0 0 0 1.002 1.732l1.707-.986a24.82 24.82 0 0 1 2.849 10.619H53.63a1 1 0 1 0 0 2h1.975a24.82 24.82 0 0 1-2.849 10.619l-1.707-.986a1 1 0 0 0-1 1.732l1.703.983a25.194 25.194 0 0 1-7.772 7.772l-.983-1.703a.998.998 0 0 0-1.366-.366.999.999 0 0 0-.366 1.366l.986 1.707a24.805 24.805 0 0 1-10.456 2.845V56a1 1 0 1 0-2 0v1.976a25.235 25.235 0 0 1-4.776-.617.996.996 0 0 0-1.198.751 1 1 0 0 0 .751 1.198c1.996.46 4.035.692 6.058.692.049 0 .096-.003.145-.004.007 0 .012.004.018.004.008 0 .015-.005.023-.005a26.825 26.825 0 0 0 13.219-3.573c.031-.014.064-.021.094-.039.02-.012.031-.031.05-.044a27.197 27.197 0 0 0 9.773-9.761c.019-.027.043-.048.06-.078.012-.021.011-.043.021-.064C56.317 42.476 57.63 37.89 57.63 33s-1.313-9.476-3.596-13.436zm-.069-11.313l1.414 1.414-1.414 1.415-1.415-1.415 1.415-1.414zm-24.172-2.23V3h-3.5c-.275 0-.5-.225-.5-.5s.225-.5.5-.5h9c.275 0 .5.225.5.5s-.225.5-.5.5h-3.5v3.021c-.348-.014-.68-.021-1-.021l-.088.002L30.63 6c-.164 0-.328.011-.492.014-.116.003-.225.002-.345.007zm-8 7.979h-5a1 1 0 1 0 0 2h5a1 1 0 1 0 0-2zm0 7h-10a1 1 0 1 0 0 2h10a1 1 0 1 0 0-2zm0 7h-15a1 1 0 1 0 0 2h15a1 1 0 1 0 0-2zm0 7h-19a1 1 0 1 0 0 2h19a1 1 0 1 0 0-2zm0 7h-13a1 1 0 1 0 0 2h13a1 1 0 1 0 0-2zm0 7h-7a1 1 0 1 0 0 2h7a1 1 0 1 0 0-2z"/>
        </symbol>
    
        <symbol id="icon-все виды работ" viewBox="0 0 512 512">
            <path d="M155.869 356.686l-.294-.293c-3.914-3.895-10.245-3.881-14.142.034-3.896 3.915-3.881 10.246.034 14.142l.327.325a9.966 9.966 0 0 0 7.037 2.896c2.575 0 5.15-.989 7.105-2.962 3.887-3.924 3.857-10.255-.067-14.142z"/><path d="M370.553 141.449c-63.164-63.164-165.94-63.164-229.104 0-51.708 51.708-62.365 132.03-25.917 195.328 2.756 4.786 8.871 6.431 13.656 3.676 4.786-2.756 6.432-8.87 3.676-13.656-31.945-55.477-22.599-125.879 22.727-171.206 55.366-55.366 145.454-55.366 200.819 0 55.366 55.366 55.366 145.453 0 200.819-45.602 45.602-116.298 54.777-171.919 22.313-4.771-2.785-10.894-1.175-13.678 3.596-2.784 4.77-1.174 10.894 3.596 13.678 25.379 14.813 53.503 22.027 81.451 22.027 41.938 0 83.474-16.253 114.693-47.472 63.163-63.164 63.163-165.939 0-229.103z"/><path d="M511.965 212.062a10 10 0 0 0-8.435-9.873l-36.913-5.849-19.583-47.227 21.943-30.254a10 10 0 0 0-1.026-12.944L405.93 43.936a9.999 9.999 0 0 0-12.946-1.017l-30.225 21.957-47.26-19.555-5.874-36.894A10.001 10.001 0 0 0 299.749 0h-.004l-87.683.036a10.001 10.001 0 0 0-9.873 8.435l-5.848 36.913-47.227 19.583-30.254-21.943a10 10 0 0 0-12.944 1.026l-61.979 62.021a10 10 0 0 0-1.017 12.946l21.957 30.225-19.555 47.26-36.894 5.874A10 10 0 0 0 0 212.255l.036 87.682a10 10 0 0 0 8.435 9.873l36.913 5.849 19.583 47.227-21.943 30.254a10 10 0 0 0 1.026 12.944l62.021 61.979a10 10 0 0 0 12.946 1.017l30.225-21.957 47.26 19.555 5.874 36.894a10 10 0 0 0 9.875 8.428h.004l87.682-.037a10.001 10.001 0 0 0 9.873-8.435l5.849-36.913 47.227-19.583 30.254 21.943a9.998 9.998 0 0 0 12.944-1.026l61.979-62.021a10 10 0 0 0 1.017-12.946l-21.957-30.225 19.555-47.26 36.894-5.874a10 10 0 0 0 8.428-9.879l-.035-87.682zm-53.958 84.564a9.999 9.999 0 0 0-7.668 6.052l-23.835 57.604a10 10 0 0 0 1.15 9.701l20.229 27.846-49.91 49.944-27.875-20.217a10.005 10.005 0 0 0-9.702-1.143l-57.568 23.872a9.999 9.999 0 0 0-6.046 7.672l-5.389 34.009-70.607.03-5.412-33.99a9.999 9.999 0 0 0-6.052-7.668l-57.604-23.835a9.995 9.995 0 0 0-9.7 1.15l-27.846 20.229-49.944-49.91 20.217-27.875a10 10 0 0 0 1.142-9.702l-23.871-57.568a9.999 9.999 0 0 0-7.672-6.046l-34.01-5.389-.029-70.607 33.99-5.412a9.999 9.999 0 0 0 7.668-6.052l23.835-57.604a10 10 0 0 0-1.15-9.701L64.119 114.17l49.91-49.944 27.875 20.217a9.998 9.998 0 0 0 9.702 1.143l57.568-23.872a10 10 0 0 0 6.046-7.672l5.388-34.01 70.608-.029 5.412 33.99a9.999 9.999 0 0 0 6.052 7.668l57.604 23.835a10.005 10.005 0 0 0 9.701-1.15l27.846-20.229 49.944 49.91-20.217 27.875a10 10 0 0 0-1.142 9.702l23.871 57.568a9.999 9.999 0 0 0 7.672 6.046l34.01 5.389.029 70.607-33.991 5.412z"/><path d="M347.102 268.458c-12.507-11.363-29.315-16.298-45.907-13.716l-43.917-43.917c2.671-17.396-3.066-35.298-15.641-47.874a55.603 55.603 0 0 0-60.052-12.304 9.998 9.998 0 0 0-3.355 16.355l14.5 14.5c3.069 3.069 3.069 8.063 0 11.133-3.069 3.07-8.063 3.07-11.133 0l-14.55-14.551a9.997 9.997 0 0 0-16.34 3.318c-8.719 21.532-3.014 46.503 14.195 62.138 12.52 11.377 29.341 16.311 45.951 13.711l43.877 43.878c-2.688 17.41 3.046 35.329 15.635 47.919a55.549 55.549 0 0 0 39.323 16.31 55.728 55.728 0 0 0 20.891-4.071 10 10 0 0 0 3.326-16.343l-14.434-14.435c-3.069-3.069-3.069-8.063 0-11.133 3.069-3.07 8.063-3.07 11.133 0l14.405 14.405a9.998 9.998 0 0 0 16.352-3.347c8.622-21.488 2.892-46.394-14.259-61.976zm-2.357 36.777c-10.868-10.867-28.551-10.868-39.418 0s-10.867 28.55 0 39.417l.488.489a35.589 35.589 0 0 1-21.309-10.235c-8.971-8.971-12.508-22.172-9.229-34.452a9.998 9.998 0 0 0-2.59-9.65l-51.512-51.512a10 10 0 0 0-9.635-2.595c-11.843 3.145-24.251.167-33.192-7.957-6.567-5.969-10.522-14.057-11.469-22.537l.575.575c10.868 10.867 28.55 10.868 39.418 0 10.867-10.868 10.867-28.55 0-39.417l-.473-.473a35.589 35.589 0 0 1 21.095 10.207c8.961 8.961 12.5 22.15 9.237 34.42a10 10 0 0 0 2.593 9.642l51.542 51.542a10 10 0 0 0 9.626 2.597c11.831-3.126 24.228-.148 33.16 7.966 6.507 5.912 10.451 13.917 11.441 22.321l-.348-.348zm2.598-120.646c-16.481-21.053-39.845-35.862-65.79-41.7-5.386-1.213-10.739 2.172-11.951 7.561-1.212 5.389 2.172 10.739 7.561 11.951 21.457 4.828 40.788 17.086 54.432 34.517a9.982 9.982 0 0 0 7.881 3.836 9.956 9.956 0 0 0 6.157-2.126c4.349-3.404 5.115-9.69 1.71-14.039zm19.105 36.06l-.146-.452c-1.697-5.256-7.332-8.138-12.589-6.443-5.256 1.697-8.141 7.333-6.443 12.589l.127.392c1.357 4.249 5.29 6.96 9.523 6.96a9.996 9.996 0 0 0 3.045-.477c5.261-1.681 8.164-7.308 6.483-12.569z"/>
        </symbol>
    
        <symbol id="icon-гарантия" viewBox="0 0 374.48 374.48">
            <path d="M206.64 216.015H87.92a6.84 6.84 0 0 0-6.84 6.84 6.84 6.84 0 0 0 6.84 6.84h118.72a6.84 6.84 0 0 0 6.84-6.84 6.84 6.84 0 0 0-6.84-6.84zm86.316-142.72c-24.477.023-44.301 19.885-44.278 44.362a44.32 44.32 0 0 0 13.002 31.318 44.16 44.16 0 0 0 31.36 12.96c24.477-.023 44.301-19.885 44.278-44.362-.023-24.477-19.885-44.301-44.362-44.278zm21.764 65.943c-11.958 11.974-31.358 11.986-43.331.029a30.64 30.64 0 0 1-8.989-21.651 30.56 30.56 0 0 1 8.96-21.68c11.958-11.974 31.358-11.986 43.331-.029 11.974 11.957 11.987 31.357.029 43.331z"/><path d="M371.04 126.895l.08.08a23.36 23.36 0 0 0-3.04-24 24.033 24.033 0 0 0-4.96-3.84 23.997 23.997 0 0 0 1.68-6.08c1.806-12.819-7.121-24.675-19.94-26.481a25.602 25.602 0 0 0-.62-.079 23.36 23.36 0 0 0-11.12-17.36h-.4a23.36 23.36 0 0 0-14.96-2.96c-2.092.29-4.136.855-6.08 1.68a23.997 23.997 0 0 0-4.56-4.72c-10.19-7.985-24.923-6.198-32.908 3.992-.126.161-.25.324-.372.488a23.997 23.997 0 0 0-6.08-1.68c-12.819-1.806-24.675 7.121-26.481 19.94-.029.206-.055.413-.079.62a23.36 23.36 0 0 0-17.36 11.12v.4a23.36 23.36 0 0 0-2.96 14.96c.29 2.092.855 4.136 1.68 6.08a23.963 23.963 0 0 0-4.48 4.4l-.72.96H62.32a8 8 0 0 0-4.88 2.08l-55.36 55.04a7.524 7.524 0 0 0-2.08 4.88v131.2c.044 21.366 17.354 38.676 38.72 38.72h296.8a38.638 38.638 0 0 0 27.6-11.28 38.561 38.561 0 0 0 11.36-27.36v-154.8a38.474 38.474 0 0 0-3.44-16zm-143.868-11.38a9.83 9.83 0 0 1 1.788-3.66v-.32a9.84 9.84 0 0 1 5.36-3.52 6.799 6.799 0 0 0 2.959-11.6 9.84 9.84 0 0 1-1.6-11.92 9.76 9.76 0 0 1 4.64-3.92 9.925 9.925 0 0 1 6.48 0 6.8 6.8 0 0 0 8-8.401 9.842 9.842 0 0 1 0-6.4c2.127-5.001 7.905-7.331 12.906-5.204a9.83 9.83 0 0 1 3.094 2.084 6.801 6.801 0 0 0 12.32-3.52c1.287-5.28 6.611-8.517 11.891-7.229a9.84 9.84 0 0 1 7.229 7.229 6.8 6.8 0 0 0 11.6 2.96 9.84 9.84 0 0 1 11.92-1.6 9.76 9.76 0 0 1 3.92 4.64 9.842 9.842 0 0 1 0 6.4 6.8 6.8 0 0 0 8.64 8 9.915 9.915 0 0 1 6.24.4c5.001 2.127 7.331 7.905 5.204 12.906a9.847 9.847 0 0 1-2.084 3.094 6.8 6.8 0 0 0 3.12 11.52c5.28 1.287 8.516 6.611 7.229 11.891a9.84 9.84 0 0 1-7.229 7.229 6.8 6.8 0 0 0-2.08 12.56 9.84 9.84 0 0 1 1.6 11.92 9.76 9.76 0 0 1-4.64 3.92 9.842 9.842 0 0 1-6.4 0 6.8 6.8 0 0 0-8.4 8.48 9.842 9.842 0 0 1 0 6.4 9.76 9.76 0 0 1-4.16 4.8 9.841 9.841 0 0 1-12-1.68 6.801 6.801 0 0 0-11.52 3.12c-1.287 5.28-6.611 8.517-11.891 7.229a9.84 9.84 0 0 1-7.229-7.229 6.8 6.8 0 0 0-11.6-2.96c-3.854 3.832-10.084 3.815-13.916-.039a9.839 9.839 0 0 1-2.484-9.641 6.8 6.8 0 0 0-9.12-8.32 9.842 9.842 0 0 1-6.4 0 9.76 9.76 0 0 1-4.8-4.16 9.841 9.841 0 0 1 1.68-12 6.8 6.8 0 0 0-3.12-11.52c-5.27-1.322-8.47-6.668-7.147-11.939zm42.668 73.7a23.942 23.942 0 0 0 4.32-1.36 23.963 23.963 0 0 0 4.4 4.48 23.359 23.359 0 0 0 28.88 0 23.963 23.963 0 0 0 4.4-4.48 23.475 23.475 0 0 0 4.16 1.36v27.28l-.8-.48-18.64-10.8a6.799 6.799 0 0 0-6.88 0l-18.72 10.72-.8.48v-27.2h-.32zm-214.4-61.76v19.68a12.481 12.481 0 0 1-3.36 8.56 12.48 12.48 0 0 1-8.88 3.68H23.28l32.16-31.92zm297.84 187.68a24.961 24.961 0 0 1-17.68 7.36H38.72c-13.793-.087-24.953-11.247-25.04-25.04v-124.16h29.44a26.159 26.159 0 0 0 18.48-8v-.4a26.08 26.08 0 0 0 7.52-17.76v-29.36h144a23.363 23.363 0 0 0 4.96 14.24 23.994 23.994 0 0 0 4.48 4.4 23.997 23.997 0 0 0-1.68 6.08c-1.806 12.819 7.121 24.675 19.94 26.481.206.029.413.055.62.079a23.362 23.362 0 0 0 11.6 17.6 23.952 23.952 0 0 0 3.2 1.52v30.96c0 9.52 4.48 12.56 10.4 12.56a22.72 22.72 0 0 0 10.88-3.92l15.52-8.64 15.2 8.8a22.72 22.72 0 0 0 10.88 3.92c6 0 10.4-3.04 10.4-12.56v-31.12a23.952 23.952 0 0 0 3.2-1.52 23.362 23.362 0 0 0 11.6-17.6 23.44 23.44 0 0 0 16-9.36l.32 138a25.04 25.04 0 0 1-7.36 17.44z"/><path d="M206.64 254.415H87.92a6.84 6.84 0 0 0-6.84 6.84 6.84 6.84 0 0 0 6.84 6.84h118.72a6.84 6.84 0 0 0 6.84-6.84 6.84 6.84 0 0 0-6.84-6.84zm0-76.88H87.92a6.84 6.84 0 0 0-6.84 6.84 6.84 6.84 0 0 0 6.84 6.84h118.72a6.84 6.84 0 0 0 6.84-6.84 6.84 6.84 0 0 0-6.84-6.84z"/>
        </symbol>
    
        <symbol id="icon-диагностика" viewBox="0 0 470 470">
            <path d="M467.803 428.913L345.438 306.547a7.5 7.5 0 0 0-10.606 0l-8.839 8.839-17.796-17.796C338.43 264.754 355 222.403 355 177.5c0-47.412-18.463-91.986-51.989-125.511S224.912 0 177.5 0 85.514 18.463 51.989 51.989 0 130.088 0 177.5s18.463 91.986 51.989 125.511S130.088 355 177.5 355c44.903 0 87.254-16.57 120.091-46.803l17.796 17.796-8.839 8.839a7.5 7.5 0 0 0 0 10.606l122.365 122.365c1.464 1.464 3.384 2.197 5.303 2.197s3.839-.732 5.303-2.197l28.284-28.284a7.5 7.5 0 0 0 0-10.606zM62.595 292.405C31.903 261.712 15 220.905 15 177.5S31.903 93.288 62.595 62.595 134.095 15 177.5 15s84.212 16.903 114.905 47.595S340 134.095 340 177.5s-16.903 84.212-47.595 114.905S220.905 340 177.5 340s-84.212-16.903-114.905-47.595zm371.621 159.489L322.457 340.135l17.678-17.678 111.759 111.759-17.678 17.678z"/><path d="M177.5 140c-20.678 0-37.5 16.822-37.5 37.5s16.822 37.5 37.5 37.5 37.5-16.822 37.5-37.5-16.822-37.5-37.5-37.5zm0 60c-12.407 0-22.5-10.093-22.5-22.5s10.093-22.5 22.5-22.5 22.5 10.093 22.5 22.5-10.093 22.5-22.5 22.5z"/><path d="M238.413 148.407l17.733-17.733a7.5 7.5 0 0 0 .806-9.654 97.707 97.707 0 0 0-22.973-22.972 7.499 7.499 0 0 0-9.653.806l-17.733 17.733a67.173 67.173 0 0 0-6.593-2.741V88.768a7.5 7.5 0 0 0-6.258-7.396C188.321 80.461 182.856 80 177.5 80s-10.821.461-16.242 1.372A7.5 7.5 0 0 0 155 88.768v25.078a67.173 67.173 0 0 0-6.593 2.741l-17.733-17.733a7.501 7.501 0 0 0-9.653-.807 97.711 97.711 0 0 0-22.973 22.973 7.499 7.499 0 0 0 .807 9.653l17.733 17.733a67.173 67.173 0 0 0-2.741 6.593H88.768a7.5 7.5 0 0 0-7.396 6.258A98.337 98.337 0 0 0 80 177.5c0 5.355.461 10.82 1.372 16.242A7.5 7.5 0 0 0 88.768 200h25.079a66.929 66.929 0 0 0 2.741 6.593l-17.733 17.733a7.5 7.5 0 0 0-.806 9.654 97.74 97.74 0 0 0 22.972 22.972 7.5 7.5 0 0 0 9.654-.806l17.733-17.733a67.071 67.071 0 0 0 6.593 2.741v25.079a7.5 7.5 0 0 0 6.258 7.396c5.421.91 10.886 1.372 16.242 1.372s10.821-.461 16.242-1.372a7.5 7.5 0 0 0 6.258-7.396v-25.079a66.929 66.929 0 0 0 6.593-2.741l17.733 17.733a7.499 7.499 0 0 0 9.653.806 97.711 97.711 0 0 0 22.973-22.973 7.5 7.5 0 0 0-.806-9.653l-17.733-17.733a67.071 67.071 0 0 0 2.741-6.593h25.079a7.5 7.5 0 0 0 7.396-6.258c.91-5.421 1.372-10.886 1.372-16.242s-.461-10.821-1.372-16.242a7.5 7.5 0 0 0-7.396-6.258h-25.079a67.673 67.673 0 0 0-2.742-6.593zM260 177.5c0 2.476-.117 4.983-.35 7.5h-24.041a7.498 7.498 0 0 0-7.263 5.631 52.123 52.123 0 0 1-5.62 13.523 7.5 7.5 0 0 0 1.154 9.119l17.003 17.003a82.654 82.654 0 0 1-10.607 10.607l-17.003-17.003a7.5 7.5 0 0 0-9.118-1.154 52.155 52.155 0 0 1-13.524 5.621A7.5 7.5 0 0 0 185 235.61v24.041a80.647 80.647 0 0 1-15 0V235.61a7.498 7.498 0 0 0-5.631-7.263 52.123 52.123 0 0 1-13.523-5.62 7.5 7.5 0 0 0-9.119 1.154l-17.003 17.002a82.639 82.639 0 0 1-10.606-10.606l17.002-17.003a7.5 7.5 0 0 0 1.154-9.118 52.155 52.155 0 0 1-5.621-13.524 7.5 7.5 0 0 0-7.263-5.631H95.35c-.233-2.517-.35-5.024-.35-7.5s.117-4.983.35-7.5h24.04a7.5 7.5 0 0 0 7.263-5.63 52.14 52.14 0 0 1 5.621-13.524 7.5 7.5 0 0 0-1.154-9.118l-17.002-17.003a82.639 82.639 0 0 1 10.606-10.606l17.003 17.002a7.5 7.5 0 0 0 9.118 1.154 52.155 52.155 0 0 1 13.524-5.621 7.5 7.5 0 0 0 5.63-7.263V95.35a80.647 80.647 0 0 1 15 0v24.041a7.498 7.498 0 0 0 5.631 7.263 52.086 52.086 0 0 1 13.524 5.621 7.501 7.501 0 0 0 9.118-1.154l17.003-17.003a82.646 82.646 0 0 1 10.606 10.607l-17.002 17.003a7.501 7.501 0 0 0-1.154 9.119 52.151 52.151 0 0 1 5.62 13.523 7.5 7.5 0 0 0 7.263 5.631h24.041A81.06 81.06 0 0 1 260 177.5z"/><path d="M285.292 92.132a7.5 7.5 0 0 0-11.748 9.326c38.661 48.7 34.61 118.629-9.423 162.662-47.763 47.763-125.479 47.763-173.241 0s-47.763-125.479 0-173.241c44.033-44.034 113.962-48.083 162.662-9.423a7.5 7.5 0 0 0 9.326-11.748c-54.672-43.402-133.17-38.86-182.595 10.564-53.611 53.611-53.611 140.843 0 194.454 26.806 26.806 62.016 40.208 97.227 40.208s70.421-13.403 97.227-40.208c49.425-49.424 53.966-127.922 10.565-182.594z"/>
        </symbol>
    
        <symbol id="icon-инстак" viewBox="0 0 512 512">
            <path d="M373.659 0H138.341C62.06 0 0 62.06 0 138.341v235.318C0 449.94 62.06 512 138.341 512h235.318C449.94 512 512 449.94 512 373.659V138.341C512 62.06 449.94 0 373.659 0zm96.977 373.659c0 53.473-43.503 96.977-96.977 96.977H138.341c-53.473 0-96.977-43.503-96.977-96.977V138.341c0-53.473 43.503-96.977 96.977-96.977h235.318c53.473 0 96.977 43.503 96.977 96.977v235.318z"/><path d="M370.586 238.141c-3.64-24.547-14.839-46.795-32.386-64.342-17.547-17.546-39.795-28.746-64.341-32.385a114.73 114.73 0 0 0-33.682 0c-30.336 4.499-57.103 20.541-75.372 45.172-18.269 24.631-25.854 54.903-21.355 85.237 4.499 30.335 20.541 57.102 45.172 75.372 19.996 14.831 43.706 22.619 68.153 22.619 5.667 0 11.375-.418 17.083-1.265 30.336-4.499 57.103-20.541 75.372-45.172 18.27-24.63 25.855-54.901 21.356-85.236zm-102.795 89.491c-19.405 2.882-38.77-1.973-54.527-13.66-15.757-11.687-26.019-28.811-28.896-48.216-2.878-19.405 1.973-38.77 13.66-54.527 11.688-15.757 28.811-26.019 48.217-28.897a73.42 73.42 0 0 1 21.545.001c32.231 4.779 57.098 29.645 61.878 61.877 5.94 40.058-21.817 77.482-61.877 83.422zm132.258-215.681a20.83 20.83 0 0 0-14.625-6.058 20.826 20.826 0 0 0-14.625 6.058 20.814 20.814 0 0 0-6.058 14.625 20.814 20.814 0 0 0 6.058 14.625 20.83 20.83 0 0 0 14.625 6.058 20.826 20.826 0 0 0 14.625-6.058 20.83 20.83 0 0 0 6.058-14.625 20.826 20.826 0 0 0-6.058-14.625z"/>
        </symbol>
    
        <symbol id="icon-лого" viewBox="0 0 511.933 511.933">
            <path d="M473.433 409.506l-57.588-57.588c11.01-41.086-.527-85.381-31.071-115.925-33.737-33.736-84.25-44.286-128.687-26.873l-28.458 11.15 61.896 61.896a19.868 19.868 0 0 1 5.857 14.142 19.872 19.872 0 0 1-5.858 14.142c-3.778 3.778-8.8 5.858-14.142 5.858s-10.365-2.08-14.142-5.858l-61.895-61.895-11.151 28.458c-17.412 44.438-6.863 94.949 26.874 128.688 22.939 22.938 53.628 35.157 84.895 35.155 10.365 0 20.799-1.344 31.028-4.085l57.589 57.589c11.333 11.332 26.4 17.573 42.426 17.573s31.094-6.241 42.426-17.573c11.333-11.333 17.574-26.4 17.574-42.427.001-16.028-6.241-31.095-17.573-42.427zm-28.284 56.568c-3.778 3.778-8.8 5.858-14.142 5.858s-10.365-2.08-14.142-5.858l-75.519-75.518-12.185 4.774c-29.632 11.608-63.314 4.578-85.809-17.915a79.993 79.993 0 0 1-23.28-51.565l12.883 12.884c11.333 11.332 26.4 17.573 42.426 17.573s31.094-6.241 42.426-17.573c11.333-11.333 17.574-26.4 17.574-42.427s-6.241-31.095-17.574-42.427l-12.883-12.883a80.007 80.007 0 0 1 51.565 23.279c22.494 22.495 29.526 56.177 17.915 85.81l-4.774 12.186 75.519 75.519a19.868 19.868 0 0 1 5.857 14.142 19.865 19.865 0 0 1-5.857 14.141zm-209.535 1.279a160.24 160.24 0 0 0 57.066 13.322c-27.71 17.682-48.294 26.939-49.623 27.53l-8.131 3.618-8.131-3.618c-2.089-.93-51.727-23.253-101.857-66.063-29.813-25.46-53.656-52.958-70.863-81.729-21.996-36.775-33.148-75.635-33.148-115.498V124.247c0-29.085 20.842-53.931 49.559-59.078 48.482-8.688 93.135-35.167 115.437-50.178C200.49 5.185 217.435 0 234.926 0s34.437 5.185 49.006 14.992c22.3 15.01 66.953 41.488 115.435 50.177 28.716 5.147 49.559 29.993 49.559 59.078v120.667c0 5.389-.211 10.758-.618 16.108a159.772 159.772 0 0 0-39.382-57.295v-79.48c0-9.692-6.988-17.979-16.615-19.705-55.696-9.981-105.804-39.6-130.715-56.367-7.945-5.349-17.167-8.175-26.67-8.175s-18.725 2.826-26.668 8.174c-24.913 16.769-75.021 46.387-130.717 56.368-9.627 1.726-16.615 10.013-16.615 19.705v120.667c0 59.429 30.023 115.335 89.236 166.167 34.417 29.545 69.359 48.803 84.764 56.623l.688-.351z"/>
        </symbol>
    
        <symbol id="icon-оригинальные запчасти" viewBox="0 0 60 60">
            <path d="M6 11h6a1 1 0 0 0 0-2H6a1 1 0 1 0 0 2zm11 0h9a1 1 0 0 0 0-2h-9a1 1 0 0 0 0 2zM6 22h32a1 1 0 0 0 0-2H6a1 1 0 0 0 0 2zm0 4h14a1 1 0 0 0 0-2H6a1 1 0 0 0 0 2zm0 8h14a1 1 0 0 0 0-2H6a1 1 0 0 0 0 2zm0 8h14a1 1 0 0 0 0-2H6a1 1 0 0 0 0 2zm0 8h14a1 1 0 0 0 0-2H6a1 1 0 0 0 0 2z"/><path d="M59.4 29.13L48 24.207V3a3 3 0 0 0-3-3H7a3 3 0 0 0-3 3v1H3a3 3 0 0 0-3 3v50a3 3 0 0 0 3 3h38a2.992 2.992 0 0 0 2.145-.913l.82.583c.62.44 1.45.44 2.07 0l9.675-6.887A10.185 10.185 0 0 0 60 44.509V30.048a1 1 0 0 0-.6-.918zM6 3a1 1 0 0 1 1-1h38a1 1 0 0 1 1 1v20.343l-.6-.261a1 1 0 0 0-.792 0l-.6.261V17c0-.022-.011-.043-.013-.065a.941.941 0 0 0-.048-.246c-.007-.023-.006-.047-.015-.069-.009-.022-.016-.022-.021-.034a1 1 0 0 0-.2-.293l-12-12a1 1 0 0 0-.293-.2c-.013-.006-.022-.016-.034-.021-.012-.005-.046-.008-.068-.015a1 1 0 0 0-.249-.049C31.042 4.011 31.022 4 31 4H6V3zm26 4.414L40.586 16H33a1 1 0 0 1-1-1V7.414zM41 58H3a1 1 0 0 1-1-1V7a1 1 0 0 1 1-1h27v9a3 3 0 0 0 3 3h9v6.207L38.781 25.6A.977.977 0 0 0 39 25a1 1 0 0 0-1-1H24a1 1 0 0 0 0 2h13.849l-4.63 2H6a1 1 0 0 0 0 2h24.007c0 .016-.007.031-.007.048V32h-6a1 1 0 0 0 0 2h6v2H6a1 1 0 0 0 0 2h24v2h-6a1 1 0 0 0 0 2h6v2H6a1 1 0 0 0 0 2h24.125c.1.682.269 1.353.506 2H24a1 1 0 0 0 0 2h7.641a10.233 10.233 0 0 0 1.681 2H6a1 1 0 0 0 0 2h30l5.448 3.878A.976.976 0 0 1 41 58zm17-13.491a8.182 8.182 0 0 1-3.449 6.644L45 57.952l-9.551-6.8A8.182 8.182 0 0 1 32 44.509v-13.8l1.81-.782.019-.008L45 25.089l13 5.616v13.804z"/><path d="M44.6 27.439l-10 4.32a1 1 0 0 0-.6.918v11.832a6.178 6.178 0 0 0 2.608 5.014l7.812 5.561a1 1 0 0 0 1.16 0l7.812-5.561A6.18 6.18 0 0 0 56 44.509V32.677a1 1 0 0 0-.6-.918l-10-4.32a1 1 0 0 0-.8 0zm9.4 5.9v11.17a4.178 4.178 0 0 1-1.769 3.391L45 53.042l-7.231-5.148A4.175 4.175 0 0 1 36 44.509V33.334l9-3.887 9 3.892z"/><path d="M39.6 42.2a1 1 0 1 0-1.2 1.6l4 3a1 1 0 0 0 1.381-.175l8-10a1 1 0 1 0-1.562-1.25l-7.394 9.244L39.6 42.2z"/>
        </symbol>
    
        <symbol id="icon-посудомоечная машина" viewBox="0 0 512 512">
            <path d="M384 290.133h-64c-4.719 0-8.533 3.823-8.533 8.533s3.814 8.533 8.533 8.533h64c4.719 0 8.533-3.823 8.533-8.533s-3.814-8.533-8.533-8.533zm0 34.134h-55.467A8.53 8.53 0 0 0 320 332.8a8.53 8.53 0 0 0 8.533 8.533H384a8.53 8.53 0 0 0 8.533-8.533 8.53 8.53 0 0 0-8.533-8.533zm0 68.266h-64c-4.719 0-8.533 3.823-8.533 8.533s3.814 8.533 8.533 8.533h64c4.719 0 8.533-3.823 8.533-8.533s-3.814-8.533-8.533-8.533zM213.333 307.2c-23.526 0-42.667 19.14-42.667 42.667 0 23.526 19.14 42.667 42.667 42.667 23.526 0 42.667-19.14 42.667-42.667S236.86 307.2 213.333 307.2zm0 68.267c-14.114 0-25.6-11.486-25.6-25.6s11.486-25.6 25.6-25.6 25.6 11.486 25.6 25.6-11.486 25.6-25.6 25.6z"/><path d="M435.2 0H76.8C53.274 0 34.133 19.14 34.133 42.667v51.2a8.536 8.536 0 0 0 8.533 8.533H435.2a8.53 8.53 0 0 0 8.533-8.533 8.53 8.53 0 0 0-8.533-8.533h-384V42.667c0-14.114 11.486-25.6 25.6-25.6h358.4c14.114 0 25.6 11.486 25.6 25.6V435.2c0 14.114-11.486 25.6-25.6 25.6a8.53 8.53 0 0 0-8.533 8.533v25.6H85.333v-17.067h315.733c4.719 0 8.533-3.823 8.533-8.533s-3.814-8.533-8.533-8.533H76.8c-14.114 0-25.6-11.486-25.6-25.6V128a8.536 8.536 0 0 0-8.533-8.533A8.536 8.536 0 0 0 34.134 128v307.2c0 20.608 14.686 37.837 34.133 41.805v26.462A8.536 8.536 0 0 0 76.8 512h358.4a8.53 8.53 0 0 0 8.533-8.533v-26.462c19.447-3.959 34.133-21.197 34.133-41.805V42.667C477.867 19.14 458.726 0 435.2 0z"/><path d="M384 358.4h-55.467c-4.719 0-8.533 3.823-8.533 8.533s3.814 8.533 8.533 8.533H384c4.719 0 8.533-3.823 8.533-8.533S388.719 358.4 384 358.4zM324.267 51.2c0 9.412 7.654 17.067 17.067 17.067 9.412 0 17.067-7.654 17.067-17.067 0-9.412-7.654-17.067-17.067-17.067s-17.067 7.655-17.067 17.067zm68.266 0c0 9.412 7.654 17.067 17.067 17.067 9.412 0 17.067-7.654 17.067-17.067 0-9.412-7.654-17.067-17.067-17.067-9.412 0-17.067 7.655-17.067 17.067zM93.867 42.667c-4.71 0-8.533 3.823-8.533 8.533s3.823 8.533 8.533 8.533h68.267c4.71 0 8.533-3.823 8.533-8.533s-3.823-8.533-8.533-8.533H93.867zm200.533 230.4H384a8.53 8.53 0 0 0 8.533-8.533 8.53 8.53 0 0 0-8.533-8.533h-89.6a8.53 8.53 0 0 0-8.533 8.533 8.53 8.53 0 0 0 8.533 8.533z"/><path d="M418.133 443.733c14.114 0 25.6-11.486 25.6-25.6V145.067c0-14.114-11.486-25.6-25.6-25.6H93.867c-14.114 0-25.6 11.486-25.6 25.6v273.067c0 14.114 11.486 25.6 25.6 25.6h324.266zm-332.8-25.6V145.067c0-4.702 3.831-8.533 8.533-8.533h324.267c4.71 0 8.533 3.831 8.533 8.533v273.067c0 4.702-3.823 8.533-8.533 8.533H93.867c-4.702 0-8.534-3.832-8.534-8.534z"/><path d="M150.315 407.885a8.533 8.533 0 0 0 1.681-11.955c-10.112-13.44-15.462-29.363-15.462-46.063 0-42.342 34.458-76.8 76.8-76.8s76.8 34.458 76.8 76.8c0 16.7-5.35 32.623-15.471 46.063-2.833 3.772-2.082 9.122 1.69 11.955a8.46 8.46 0 0 0 5.12 1.715 8.536 8.536 0 0 0 6.827-3.396c12.365-16.435 18.901-35.908 18.901-56.337 0-51.755-42.112-93.867-93.867-93.867s-93.867 42.112-93.867 93.867c0 20.429 6.536 39.902 18.901 56.337 2.825 3.754 8.175 4.531 11.947 1.681z"/>
        </symbol>
    
        <symbol id="icon-режим работы" viewBox="0 0 512 512">
            <path d="M27.689 181h58.8v30h-58.8zm0 120h58.8v30h-58.8zM0 241h86.49v30H0zM314.244 58.245c-109.042 0-197.755 88.713-197.755 197.755s88.712 197.755 197.755 197.755S512 365.042 512 256 423.287 58.245 314.244 58.245zm0 365.51c-92.5 0-167.755-75.255-167.755-167.755S221.744 88.245 314.244 88.245C406.745 88.245 482 163.5 482 256s-75.255 167.755-167.756 167.755z"/><path d="M323.93 263.454v-96.897h-30v112.756l77.308 52.683 16.895-24.791z"/>
        </symbol>
    
        <symbol id="icon-смайл 1" viewBox="0 0 567.41 567.41">
            <path d="M316.967 341.622h-45.388c-57.483 0-104.253 45.988-104.253 102.806 0 7.435 6.034 13.351 13.468 13.351 7.435 0 13.468-6.33 13.468-13.764 0-42.667 33.958-76.392 77.317-76.392h45.388c42.632 0 77.317 34.644 77.317 76.953 0 7.434 6.034 13.587 13.468 13.587s13.468-5.739 13.468-13.173c.001-57.161-46.77-103.368-104.253-103.368z"/><path d="M283.7 0c-41.203 0-80.856 8.643-117.968 25.651-6.408-7.475-11.396-12.569-12.908-14.086-2.577-2.568-6.258-4.041-9.688-3.96a13.445 13.445 0 0 0-9.589 4.157c-1.507 1.578-30.096 31.755-44.63 66.001-.654.438-1.285.928-1.872 1.493C30.955 133.246.067 205.849.067 283.705c0 156.43 127.239 283.705 283.633 283.705 156.403 0 283.642-127.275 283.642-283.705C567.342 127.266 440.103 0 283.7 0zM143.558 41.258c14.573 16.826 35.296 44.84 37.792 66.147 1.598 13.585-.278 23.489-5.567 29.442-5.755 6.474-16.692 9.751-32.503 9.751-15.147 0-25.482-3.044-30.717-9.051-5.019-5.782-6.573-15.821-4.624-29.846 3.376-24.063 23.426-51.601 35.619-66.443zM283.7 540.464c-141.543 0-256.696-115.181-256.696-256.759 0-57.812 18.832-112.423 53.631-157.16 1.215 11.582 5.09 21.185 11.609 28.681 10.721 12.328 27.412 18.317 51.036 18.317 23.83 0 41.536-6.321 52.625-18.793 10.631-11.942 14.734-28.93 12.211-50.488-2.27-19.319-13.518-39.848-25.324-56.706 31.881-13.671 65.765-20.61 100.908-20.61 141.543 0 256.706 115.181 256.706 256.759S425.243 540.464 283.7 540.464z"/><path d="M398.558 281.442c7.434 0 13.468-6.025 13.468-13.468s-6.034-13.468-13.468-13.468c-17.661 0-32.584-15.578-32.584-34.012 0-7.434-6.034-13.468-13.468-13.468s-13.468 6.034-13.468 13.468c-.001 33.042 27.259 60.948 59.52 60.948zm-171.766-60.239c0-7.443-6.034-13.468-13.468-13.468s-13.468 6.025-13.468 13.468c0 17.67-15.569 32.593-33.994 32.593-7.434 0-13.468 6.034-13.468 13.477s6.034 13.468 13.468 13.468c33.024.001 60.93-27.268 60.93-59.538z"/>
        </symbol>
    
        <symbol id="icon-смайл 2" viewBox="0 0 559.463 559.463">
            <path d="M371.558 263.727c17.733 0 32.117-14.375 32.117-32.117 0-17.742-14.384-32.126-32.117-32.126-17.742 0-32.108 14.384-32.108 32.126 0 17.742 14.366 32.117 32.108 32.117zm21.864 68.518c-7.434 0-13.468 5.825-13.468 13.269 0 41.671-33.267 74.109-75.737 74.109H259.61c-41.761 0-75.746-33.453-75.746-74.828 0-7.443-6.025-13.373-13.459-13.373-7.443 0-13.468 5.909-13.468 13.352 0 56.226 46.053 101.848 102.673 101.848h44.607c57.563 0 102.673-44.295 102.673-101.078 0-7.443-6.025-13.299-13.468-13.299zM218.954 227.127c0-7.443-6.034-13.504-13.468-13.504h-53.873c-7.434 0-13.468 6.061-13.468 13.504 0 7.434 6.034 13.496 13.468 13.496h53.873c7.443-.001 13.468-6.062 13.468-13.496z"/><path d="M279.723 0C125.529 0 .076 125.488.067 279.736c0 154.239 125.453 279.727 279.655 279.727 154.212 0 279.673-125.488 279.673-279.727C559.396 125.488 433.935 0 279.723 0zm0 532.527c-139.352 0-252.719-113.403-252.719-252.791S140.371 26.945 279.723 26.945c139.361 0 252.737 113.403 252.737 252.791S419.084 532.527 279.723 532.527z"/>
        </symbol>
    
        <symbol id="icon-смотреть еще" viewBox="0 0 512 512">
            <path d="M496.4 243.1C432.5 164.4 347.1 121 256 121S79.5 164.4 15.6 243.1c-6.1 7.5-6.1 18.2 0 25.7C79.5 347.6 164.9 391 256 391s176.5-43.4 240.4-122.1c6.1-7.5 6.1-18.3 0-25.8zM256 322.9c-36.9 0-66.9-30-66.9-66.9 0-36.9 30-66.9 66.9-66.9 36.9 0 66.9 30 66.9 66.9 0 36.9-30 66.9-66.9 66.9zM58.2 256c37.8-42.2 82.9-71.1 131.5-84.9-25.2 19.7-41.5 50.4-41.5 84.9 0 34.4 16.2 65.1 41.5 84.9-48.6-13.8-93.6-42.7-131.5-84.9zm264.1 84.9c25.2-19.7 41.5-50.4 41.5-84.9 0-34.4-16.2-65.1-41.5-84.9 48.6 13.8 93.7 42.7 131.5 84.9-37.9 42.2-82.9 71.1-131.5 84.9z"/>
        </symbol>
    
        <symbol id="icon-стиральная машина" viewBox="0 0 512 512">
            <path d="M205.47 36.126c-17.508 0-31.752 14.244-31.752 31.752 0 17.509 14.244 31.752 31.752 31.752s31.752-14.244 31.752-31.752c.001-17.508-14.243-31.752-31.752-31.752zm0 48.504c-9.237 0-16.752-7.515-16.752-16.752s7.515-16.752 16.752-16.752 16.752 7.515 16.752 16.752-7.514 16.752-16.752 16.752zm-85.893-48.504c-17.508 0-31.752 14.244-31.752 31.752 0 17.509 14.244 31.752 31.752 31.752s31.752-14.244 31.752-31.752-14.244-31.752-31.752-31.752zm0 48.504c-9.237 0-16.752-7.515-16.752-16.752s7.515-16.752 16.752-16.752 16.752 7.515 16.752 16.752-7.515 16.752-16.752 16.752zm275.366-48.504h-86.267c-9.428 0-17.098 7.67-17.098 17.098v29.309c0 9.428 7.67 17.098 17.098 17.098h86.267c9.428 0 17.098-7.67 17.098-17.098V53.224c0-9.428-7.67-17.098-17.098-17.098zm2.098 46.407a2.1 2.1 0 0 1-2.098 2.098h-86.267a2.1 2.1 0 0 1-2.098-2.098V53.224a2.1 2.1 0 0 1 2.098-2.098h86.267a2.1 2.1 0 0 1 2.098 2.098v29.309zm-141.045 71.104c-30.763 0-59.871 9.919-84.176 28.686a7.5 7.5 0 1 0 9.167 11.873c21.656-16.721 47.593-25.559 75.009-25.559 67.743 0 122.856 55.113 122.856 122.856s-55.113 122.856-122.856 122.856S133.14 359.235 133.14 291.493c0-28.197 9.796-55.742 27.583-77.563a7.5 7.5 0 0 0-11.627-9.478c-19.962 24.489-30.957 55.401-30.957 87.041 0 76.014 61.842 137.856 137.856 137.856s137.856-61.842 137.856-137.856-61.841-137.856-137.855-137.856z"/><path d="M474.269 453.778V57.642C474.269 25.858 448.415 0 416.637 0H95.355C63.577 0 37.723 25.858 37.723 57.642v396.727c0 31.778 25.854 57.631 57.631 57.631h321.282c31.493 0 57.152-25.396 57.61-56.782.033-.279.038-1.244.023-1.44zm-15-6.91h-62.09a7.5 7.5 0 0 0 0 15h61.43C455.054 481.812 437.586 497 416.637 497H95.355c-20.949 0-38.417-15.188-41.971-35.131h313.794a7.5 7.5 0 0 0 0-15H52.724V135.756h406.545v311.112zm0-326.111H52.723V57.642C52.723 34.129 71.848 15 95.355 15h321.282c23.507 0 42.632 19.129 42.632 42.642v63.115z"/><path d="M255.996 188.502c-56.791 0-102.994 46.203-102.994 102.993.001 4.997.36 9.996 1.069 14.856l.002.011c3.507 24.259 15.657 46.542 34.217 62.745a102.92 102.92 0 0 0 67.705 25.381c24.913 0 48.958-9.014 67.706-25.381 18.558-16.202 30.708-38.482 34.216-62.74l.003-.015a103.188 103.188 0 0 0 1.069-14.857c0-56.791-46.203-102.993-102.993-102.993zm57.84 169.305a87.927 87.927 0 0 1-57.841 21.681 87.923 87.923 0 0 1-57.84-21.681c-14.694-12.828-24.687-30.107-28.458-49.052l4.624-3.147c7.728-5.258 18.186-5.262 25.919 0 12.768 8.688 30.024 8.69 42.795 0 7.716-5.247 18.203-5.251 25.919 0 12.773 8.691 30.023 8.689 42.799-.002 7.746-5.269 18.173-5.272 25.914.001l4.625 3.148c-3.769 18.944-13.761 36.224-28.456 49.052zm30.152-65.946c-.053-.031-.109-.058-.163-.089-4.026-2.342-8.426-3.849-13.005-4.654-5.731-1.008-11.766-.539-17.317 1.174a38.074 38.074 0 0 0-10.192 4.914c-7.735 5.263-18.194 5.255-25.919 0a37.897 37.897 0 0 0-21.397-6.595 38.17 38.17 0 0 0-21.398 6.594c-7.748 5.27-18.175 5.267-25.919 0a37.897 37.897 0 0 0-21.397-6.595c-6.645 0-13.379 1.792-19.116 5.163-.053.031-.109.057-.162.088l-.001-.368c.001-48.518 39.474-87.992 87.994-87.992s87.993 39.474 87.993 87.993l-.001.367z"/>
        </symbol>
    
        <symbol id="icon-стрелка" viewBox="0 0 129 129">
            <path d="M51.1 93.5c.8.8 1.8 1.2 2.9 1.2 1 0 2.1-.4 2.9-1.2l26.4-26.4c.8-.8 1.2-1.8 1.2-2.9 0-1.1-.4-2.1-1.2-2.9L56.9 34.9c-1.6-1.6-4.2-1.6-5.8 0-1.6 1.6-1.6 4.2 0 5.8l23.5 23.5-23.5 23.5c-1.6 1.6-1.6 4.2 0 5.8z"/>
        </symbol>
    
        <symbol id="icon-телефон" viewBox="0 0 511.999 511.999">
            <path d="M498.827 377.633l-63.649-63.649c-17.548-17.547-46.102-17.547-63.649 0l-28.931 28.931c-13.294 13.294-34.926 13.29-48.215.005l-125.4-125.507c-13.325-13.325-13.327-34.892 0-48.219l28.931-28.931c17.471-17.47 17.715-45.935-.017-63.665l-63.632-63.432C116.717-4.381 88.164-4.381 70.663 13.12L47.471 36.111c-63.28 63.279-63.28 166.242-.003 229.519L246.16 464.426c63.428 63.429 166.088 63.434 229.521 0l23.146-23.145c17.548-17.548 17.548-46.1 0-63.648zM91.833 34.382c5.849-5.849 15.365-5.85 21.233.016l63.632 63.432c5.863 5.863 5.863 15.352 0 21.216l-10.609 10.608-84.81-84.81 10.554-10.462zM267.38 443.213L68.687 244.415c-48.958-48.958-51.649-125.833-8.276-178.006l84.564 84.564c-22.22 25.189-21.294 63.572 2.787 87.653l125.396 125.501.004.004c24.055 24.056 62.436 25.042 87.656 2.792l84.566 84.566c-52.007 43.298-128.709 41.019-178.004-8.276zm210.232-23.148l-10.609 10.609-84.865-84.866 10.607-10.608c5.85-5.849 15.367-5.85 21.217 0l63.649 63.649c5.85 5.85 5.85 15.368.001 21.216z"/>
        </symbol>
    
        <symbol id="icon-холодильник" viewBox="0 0 480 480">
            <path d="M392 176a8 8 0 0 0 8-8V40c-.026-22.08-17.92-39.974-40-40H120C97.92.026 80.026 17.92 80 40v128a8 8 0 0 0 8 8h8v8h-8a8 8 0 0 0-8 8v224c.026 22.08 17.92 39.974 40 40v24h56v-24h128v24h56v-24c22.08-.026 39.974-17.92 40-40V192a8 8 0 0 0-8-8h-8v-8h8zM160 464h-24v-8h24v8zm184 0h-24v-8h24v8zm40-48c0 13.255-10.745 24-24 24H120c-13.255 0-24-10.745-24-24V200h288v216zM112 184v-8h256v8H112zm-16-24V40c0-13.255 10.745-24 24-24h240c13.255 0 24 10.745 24 24v120H96z"/><path d="M120 72a8 8 0 0 0-8 8v56a8 8 0 0 0 16 0V80a8 8 0 0 0-8-8zm0 216a8 8 0 0 0 8-8v-56a8 8 0 0 0-16 0v56a8 8 0 0 0 8 8z"/>
        </symbol>
    
</svg>