<svg width="14" height="15" viewBox="0 0 14 15" fill="none" xmlns="http://www.w3.org/2000/svg">
<path d="M6.51997 1.47998L7.48003 1.47998L8.60537 4.93647C8.71798 5.28238 9.04098 5.51658 9.40542 5.51658H13.0471L13.3438 6.42782L10.3976 8.56405C10.1027 8.77783 9.97938 9.15677 10.092 9.50268L11.2173 12.9592L10.4406 13.5224L7.49446 11.3861C7.19962 11.1723 6.80038 11.1723 6.50554 11.3861L3.55938 13.5224L2.78267 12.9592L3.908 9.50268C4.02062 9.15677 3.89725 8.77783 3.60241 8.56405L0.65625 6.42782L0.952925 5.51658H4.59458C4.95902 5.51658 5.28202 5.28238 5.39463 4.93647L6.51997 1.47998Z" fill="#FFC600"/>
</svg>
